<svg width="149" height="86" fill="none" xmlns="http://www.w3.org/2000/svg">
  <path d="M22.08 18.5c-23.2 7.6-24.31 73.5 48 43.782 15.29-6.284 40.5-21 21-37.5s-21 7-30 12.5S51.08 9 22.08 18.5z" fill="#FF9DD8" filter="url(#filter0_d)"/>
  <path d="M54.27 6c0 3.314-4.253 6-9.5 6-5.246 0-9.5-2.686-9.5-6s4.254-6 9.5-6c5.247 0 9.5 2.686 9.5 6z" fill="#ECECFF"/>
  <path fill-rule="evenodd" clip-rule="evenodd" d="M50.954 9.397C52.503 8.42 53.27 7.193 53.27 6c0-1.193-.767-2.419-2.316-3.397C49.418 1.633 47.234 1 44.77 1s-4.647.633-6.183 1.603C37.038 3.58 36.27 4.807 36.27 6c0 1.193.768 2.419 2.317 3.397 1.536.97 3.72 1.603 6.183 1.603 2.464 0 4.648-.633 6.184-1.603zM44.77 12c5.247 0 9.5-2.686 9.5-6s-4.253-6-9.5-6c-5.246 0-9.5 2.686-9.5 6s4.254 6 9.5 6z" fill="#3514FF"/>
  <path d="M46.77 12c-5.5 3.5-15.5 5.5-20 6.5-3.5 23 10.167 28.833 15.5 29 12.8 1.2 14.167-16.667 15-24-8.5 0-10.833-6.333-10.5-11.5z" fill="#fff"/>
  <path d="M44.77 3.5c-11.6.8-16.833 10-18 14.5 6 1.2 15.5-3.5 19.5-6 2 12.4 8.167 12.167 11 10.5-4.8-2.8-3.333-9.833-2-13-2.4-3.6-8-5.5-10.5-6z" fill="#ECECFF"/>
  <path fill-rule="evenodd" clip-rule="evenodd" d="M43.27 47c9.192 0 17-9.406 17-21.5S52.462 4 43.27 4s-17 9.406-17 21.5 7.808 21.5 17 21.5zm0 1c9.941 0 18-10.074 18-22.5S53.211 3 43.27 3c-9.94 0-18 10.074-18 22.5s8.06 22.5 18 22.5z" fill="#3514FF"/>
  <path fill-rule="evenodd" clip-rule="evenodd" d="M47.303 10.877l-.033 1.137c-.081 2.847.707 6.5 2.76 8.79 1.015 1.131 2.337 1.93 4.038 2.152 1.708.222 3.845-.135 6.485-1.407l.434.902c-2.76 1.328-5.093 1.75-7.048 1.496-1.964-.255-3.497-1.186-4.654-2.476-2.044-2.28-2.91-5.674-3.01-8.502-.733.458-1.727.962-2.86 1.473-1.666.75-3.69 1.538-5.772 2.244-2.08.706-4.226 1.334-6.134 1.76-1.893.423-3.601.66-4.784.552l.09-.996c1.018.093 2.597-.112 4.476-.532 1.864-.417 3.974-1.033 6.031-1.731 2.056-.698 4.05-1.474 5.682-2.209 1.65-.743 2.876-1.42 3.439-1.908l.86-.745zM45.655 28.536a2.256 2.256 0 0 1 3.115 2.086c0 1.65-.884 3.173-2.316 3.992l-1.466.837-.504.202a12.055 12.055 0 0 1-9.373-.177 1.07 1.07 0 0 1-.158-.087l-1.176-.784a4.507 4.507 0 0 1-2.007-3.75v-.07c0-1.663 1.728-2.764 3.235-2.06l2.59 1.208a5.5 5.5 0 0 0 4.42.102l3.64-1.499zm2.115 2.086c0-.894-.907-1.502-1.734-1.161l-3.64 1.499a6.5 6.5 0 0 1-5.224-.12l-2.59-1.21a1.274 1.274 0 0 0-1.812 1.155v.07c0 1.173.586 2.268 1.562 2.918l1.176.784a11.055 11.055 0 0 0 8.605.167l.44-.175 1.405-.803a3.598 3.598 0 0 0 1.812-3.124z" fill="#3514FF"/>
  <path d="M36.27 24a1 1 0 1 1-2 0 1 1 0 0 1 2 0zM45.27 24a1 1 0 1 1-2 0 1 1 0 0 1 2 0z" fill="#3514FF"/>
  <path d="M92.27 17.5c0 4.694-4.253 8.5-9.5 8.5-5.246 0-9.5-3.806-9.5-8.5S77.524 9 82.77 9c5.247 0 9.5 3.806 9.5 8.5z" fill="#ECECFF"/>
  <path fill-rule="evenodd" clip-rule="evenodd" d="M82.77 25c4.802 0 8.5-3.46 8.5-7.5s-3.698-7.5-8.5-7.5-8.5 3.46-8.5 7.5 3.698 7.5 8.5 7.5zm0 1c5.247 0 9.5-3.806 9.5-8.5S88.017 9 82.77 9c-5.246 0-9.5 3.806-9.5 8.5s4.254 8.5 9.5 8.5z" fill="#3514FF"/>
  <path d="M72.27 16c0 4.97-4.477 9-10 9s-10-4.03-10-9 4.477-9 10-9 10 4.03 10 9z" fill="#ECECFF"/>
  <path fill-rule="evenodd" clip-rule="evenodd" d="M62.27 24c5.072 0 9-3.678 9-8s-3.927-8-9-8c-5.072 0-9 3.678-9 8s3.928 8 9 8zm0 1c5.523 0 10-4.03 10-9s-4.477-9-10-9-10 4.03-10 9 4.477 9 10 9z" fill="#3514FF"/>
  <path d="M70.77 15.5c-11.5-.92-17.5 13.5-18 20 3.667-.333 12.9-2.2 20.5-7 1.2 13.6 10.167 12.333 14.5 10 .167-8.167-4.5-22-17-23z" fill="#ECECFF"/>
  <path d="M73.27 28.5c-4.8 5.2-16 6.5-21 6.5.8 19.2 11.667 24.333 17 24.5 12.8 1.2 17.667-13.167 18.5-20.5-12.4 4-14.833-5.333-14.5-10.5z" fill="#fff"/>
  <path fill-rule="evenodd" clip-rule="evenodd" d="M70.27 59c9.192 0 17-9.406 17-21.5S79.462 16 70.27 16s-17 9.406-17 21.5 7.808 21.5 17 21.5zm0 1c9.941 0 18-10.074 18-22.5S80.211 15 70.27 15c-9.94 0-18 10.074-18 22.5s8.06 22.5 18 22.5z" fill="#3514FF"/>
  <path fill-rule="evenodd" clip-rule="evenodd" d="M73.802 27.877l-.032 1.137c-.08 2.83.824 6.353 2.991 8.52a6.787 6.787 0 0 0 4.215 1.998c1.762.18 3.936-.21 6.577-1.482l.434.9c-2.758 1.329-5.118 1.78-7.113 1.577a7.786 7.786 0 0 1-4.82-2.286c-2.168-2.168-3.153-5.46-3.276-8.28-.748.462-1.774.97-2.946 1.483-1.713.75-3.8 1.537-5.943 2.243s-4.35 1.333-6.304 1.76c-1.939.422-3.678.658-4.86.55l.09-.995c1.019.093 2.63-.113 4.557-.533 1.911-.416 4.085-1.033 6.204-1.731 2.12-.699 4.176-1.475 5.855-2.21 1.699-.744 2.951-1.42 3.512-1.906l.86-.745z" fill="#3514FF"/>
  <path d="M63.27 37a1 1 0 1 1-2 0 1 1 0 0 1 2 0zM72.27 37a1 1 0 1 1-2 0 1 1 0 0 1 2 0z" fill="#3514FF"/>
  <path fill-rule="evenodd" clip-rule="evenodd" d="M72.655 40.536a2.256 2.256 0 0 1 3.115 2.086c0 1.65-.884 3.173-2.316 3.992l-1.466.837-.504.202a12.054 12.054 0 0 1-9.373-.177 1.07 1.07 0 0 1-.158-.087l-1.176-.784a4.507 4.507 0 0 1-2.007-3.75v-.07c0-1.663 1.728-2.764 3.235-2.06l2.59 1.208a5.5 5.5 0 0 0 4.42.102l3.64-1.499zm2.115 2.086c0-.894-.907-1.502-1.734-1.161l-3.64 1.499a6.5 6.5 0 0 1-5.224-.12l-2.59-1.21a1.274 1.274 0 0 0-1.812 1.155v.07c0 1.173.586 2.268 1.562 2.918l1.176.784a11.054 11.054 0 0 0 8.605.167l.44-.175 1.405-.803a3.598 3.598 0 0 0 1.812-3.124z" fill="#3514FF"/>
  <path d="M24.787 56.191L43.978 37a7.122 7.122 0 0 1 6.292 6.292L31.08 62.483l-5.348 1.528c-1.509.431-2.904-.964-2.473-2.472l1.528-5.348z" fill="#FFFEFE"/>
  <path d="M24.787 56.191L43.978 37m-19.19 19.191l5.662.63m-5.663-.63l-1.528 5.347c-.43 1.51.964 2.904 2.473 2.473l5.347-1.528M43.98 37a7.122 7.122 0 0 1 6.291 6.292M43.978 37l-.09.303a6.558 6.558 0 0 0 .72 5.36m5.662.63l-19.19 19.19m19.19-19.19a12.97 12.97 0 0 1-5.534-.587l-.129-.043M31.08 62.483l-.629-5.663m14.157-14.157L30.45 56.82" stroke="#3514FF"/>
  <path d="M38.583 84.697l.006.005c.397.374.924.548 1.551.548h5.94c3.504 0 6.254-.933 8.214-2.83 1.98-1.919 2.956-4.6 2.956-8.01 0-3.39-.975-6.051-2.956-7.95-1.96-1.917-4.71-2.86-8.214-2.86h-5.94c-.627 0-1.154.174-1.551.548l-.006.005c-.379.38-.553.9-.553 1.527v17.49c0 .627.174 1.148.553 1.527zm54.07-19.91L87.702 78.96l-4.864-14.048v-.001a2.016 2.016 0 0 0-.814-1.085 1.96 1.96 0 0 0-2.389.002 2.072 2.072 0 0 0-.78 1.05l-5.01 13.914-4.868-14.003c-.156-.447-.42-.796-.794-1.03a2.245 2.245 0 0 0-1.212-.338c-.554 0-1.05.168-1.475.504l-.005.004c-.421.35-.63.823-.63 1.392 0 .256.058.544.163.859l.002.006 6.449 17.848c.16.454.446.81.855 1.06l.006.003c.418.242.871.364 1.355.364.483 0 .927-.121 1.328-.365.426-.248.733-.6.914-1.052l.003-.009 4.833-13.468 4.746 13.467c.16.458.461.815.89 1.063.419.242.872.364 1.356.364.483 0 .927-.121 1.328-.365.426-.248.733-.6.914-1.052l.003-.008 6.45-17.85.003-.007.002-.007c.101-.346.16-.634.16-.851 0-.567-.208-1.039-.627-1.39a2.045 2.045 0 0 0-1.393-.51c-.427 0-.823.113-1.183.338l-.006.004c-.353.235-.602.583-.757 1.025zm28.504 18.41l.001-.001c1.56-1.581 2.322-3.843 2.322-6.746V65.62c0-.63-.186-1.158-.58-1.554-.395-.417-.925-.616-1.56-.616-.634 0-1.164.199-1.559.616-.394.396-.581.924-.581 1.554v11.04c0 1.763-.421 3.063-1.224 3.941-.8.875-1.974 1.329-3.566 1.329-1.613 0-2.797-.446-3.596-1.3-.802-.877-1.224-2.187-1.224-3.97V65.62c0-.63-.186-1.158-.58-1.554-.395-.417-.925-.616-1.56-.616-.634 0-1.164.199-1.559.616-.394.396-.581.924-.581 1.554v10.83c0 2.922.762 5.185 2.324 6.747 1.562 1.562 3.835 2.323 6.776 2.323 2.922 0 5.186-.762 6.747-2.323zm12.854 1.615l.005.005c.413.413.95.613 1.586.613.636 0 1.167-.2 1.562-.618.391-.415.578-.95.578-1.582v-7.19h7.73c.639 0 1.165-.133 1.533-.44.377-.316.547-.779.547-1.34 0-.57-.169-1.04-.545-1.36-.369-.315-.895-.45-1.535-.45h-7.73v-5.26h8.33c.639 0 1.165-.133 1.533-.44.377-.316.547-.779.547-1.34 0-.57-.169-1.04-.545-1.36-.369-.314-.895-.45-1.535-.45h-10.53c-.627 0-1.154.174-1.551.548l-.005.005c-.38.38-.554.9-.554 1.527v17.55c0 .632.187 1.167.579 1.582zM52.88 74.41c0 2.443-.598 4.229-1.751 5.405C49.977 80.99 48.23 81.6 45.84 81.6H42.4V67.25h3.44c2.39 0 4.138.607 5.29 1.778 1.152 1.171 1.75 2.95 1.75 5.382z" fill="#3514FF" stroke="#3514FF" stroke-width=".5"/>
  <defs>
    <filter id="filter0_d" x="0" y="12.805" width="106.183" height="69.129" filterUnits="userSpaceOnUse" color-interpolation-filters="sRGB">
      <feFlood flood-opacity="0" result="BackgroundImageFix"/>
      <feColorMatrix in="SourceAlpha" values="0 0 0 0 0 0 0 0 0 0 0 0 0 0 0 0 0 0 127 0"/>
      <feOffset dy="4"/>
      <feGaussianBlur stdDeviation="4"/>
      <feColorMatrix values="0 0 0 0 0 0 0 0 0 0 0 0 0 0 0 0 0 0 0.06 0"/>
      <feBlend in2="BackgroundImageFix" result="effect1_dropShadow"/>
      <feBlend in="SourceGraphic" in2="effect1_dropShadow" result="shape"/>
    </filter>
  </defs>
</svg>
