<svg width="149" height="87" fill="none" xmlns="http://www.w3.org/2000/svg">
  <path d="M22.08 18.5c-23.2 7.6-24.31 73.5 48 43.782 15.29-6.284 40.5-21 21-37.5s-21 7-30 12.5S51.08 9 22.08 18.5z" fill="#FFD2DD" filter="url(#filter0_d)"/>
  <path d="M54.27 6c0 3.314-4.253 6-9.5 6-5.246 0-9.5-2.686-9.5-6s4.254-6 9.5-6c5.247 0 9.5 2.686 9.5 6z" fill="#ECECFF"/>
  <path fill-rule="evenodd" clip-rule="evenodd" d="M50.954 9.397C52.503 8.42 53.27 7.193 53.27 6c0-1.193-.767-2.419-2.316-3.397C49.418 1.633 47.234 1 44.77 1s-4.647.633-6.183 1.603C37.038 3.58 36.27 4.807 36.27 6c0 1.193.768 2.419 2.317 3.397 1.536.97 3.72 1.603 6.183 1.603 2.464 0 4.648-.633 6.184-1.603zM44.77 12c5.247 0 9.5-2.686 9.5-6s-4.253-6-9.5-6c-5.246 0-9.5 2.686-9.5 6s4.254 6 9.5 6z" fill="#3514FF"/>
  <path d="M46.77 12c-5.5 3.5-15.5 5.5-20 6.5-3.5 23 10.167 28.833 15.5 29 12.8 1.2 14.167-16.667 15-24-8.5 0-10.833-6.333-10.5-11.5z" fill="#fff"/>
  <path d="M44.77 3.5c-11.6.8-16.833 10-18 14.5 6 1.2 15.5-3.5 19.5-6 2 12.4 8.167 12.167 11 10.5-4.8-2.8-3.333-9.833-2-13-2.4-3.6-8-5.5-10.5-6z" fill="#ECECFF"/>
  <path fill-rule="evenodd" clip-rule="evenodd" d="M43.27 47c9.192 0 17-9.406 17-21.5S52.462 4 43.27 4s-17 9.406-17 21.5 7.808 21.5 17 21.5zm0 1c9.941 0 18-10.074 18-22.5S53.211 3 43.27 3c-9.94 0-18 10.074-18 22.5s8.06 22.5 18 22.5z" fill="#3514FF"/>
  <path fill-rule="evenodd" clip-rule="evenodd" d="M47.303 10.877l-.033 1.137c-.081 2.846.707 6.5 2.76 8.79 1.015 1.131 2.337 1.93 4.038 2.152 1.708.222 3.845-.135 6.486-1.407l.433.902c-2.759 1.328-5.093 1.75-7.048 1.496-1.964-.255-3.497-1.186-4.653-2.476-2.045-2.28-2.911-5.674-3.011-8.502-.733.458-1.727.962-2.86 1.473-1.666.75-3.69 1.538-5.771 2.244-2.081.706-4.227 1.334-6.135 1.76-1.893.423-3.601.66-4.784.552l.09-.996c1.018.093 2.597-.112 4.476-.532 1.864-.417 3.975-1.033 6.031-1.731 2.056-.698 4.05-1.475 5.682-2.209 1.65-.743 2.876-1.42 3.439-1.908l.86-.745zM45.655 28.536a2.256 2.256 0 0 1 3.115 2.086c0 1.65-.884 3.173-2.316 3.992l-1.466.837-.504.202a12.054 12.054 0 0 1-9.373-.177 1.06 1.06 0 0 1-.158-.087l-1.176-.784a4.507 4.507 0 0 1-2.007-3.75v-.07c0-1.663 1.728-2.764 3.235-2.06l2.59 1.208a5.5 5.5 0 0 0 4.42.102l3.64-1.499zm2.115 2.086c0-.894-.907-1.502-1.734-1.161l-3.64 1.499a6.5 6.5 0 0 1-5.224-.12l-2.59-1.21a1.274 1.274 0 0 0-1.812 1.155v.07c0 1.173.586 2.268 1.562 2.918l1.176.784a11.054 11.054 0 0 0 8.605.167l.44-.175 1.405-.803a3.598 3.598 0 0 0 1.812-3.124z" fill="#3514FF"/>
  <path d="M36.27 24a1 1 0 1 1-2 0 1 1 0 0 1 2 0zM45.27 24a1 1 0 1 1-2 0 1 1 0 0 1 2 0z" fill="#3514FF"/>
  <path d="M92.27 17.5c0 4.694-4.253 8.5-9.5 8.5-5.246 0-9.5-3.806-9.5-8.5S77.524 9 82.77 9c5.247 0 9.5 3.806 9.5 8.5z" fill="#ECECFF"/>
  <path fill-rule="evenodd" clip-rule="evenodd" d="M82.77 25c4.802 0 8.5-3.46 8.5-7.5s-3.698-7.5-8.5-7.5-8.5 3.46-8.5 7.5 3.698 7.5 8.5 7.5zm0 1c5.247 0 9.5-3.806 9.5-8.5S88.017 9 82.77 9c-5.246 0-9.5 3.806-9.5 8.5s4.254 8.5 9.5 8.5z" fill="#3514FF"/>
  <path d="M72.27 16c0 4.97-4.477 9-10 9s-10-4.03-10-9 4.477-9 10-9 10 4.03 10 9z" fill="#ECECFF"/>
  <path fill-rule="evenodd" clip-rule="evenodd" d="M62.27 24c5.072 0 9-3.678 9-8s-3.927-8-9-8c-5.072 0-9 3.678-9 8s3.928 8 9 8zm0 1c5.523 0 10-4.03 10-9s-4.477-9-10-9-10 4.03-10 9 4.477 9 10 9z" fill="#3514FF"/>
  <path d="M70.77 15.5c-11.5-.92-17.5 13.5-18 20 3.667-.333 12.9-2.2 20.5-7 1.2 13.6 10.167 12.333 14.5 10 .167-8.167-4.5-22-17-23z" fill="#ECECFF"/>
  <path d="M73.27 28.5c-4.8 5.2-16 6.5-21 6.5.8 19.2 11.667 24.333 17 24.5 12.8 1.2 17.667-13.167 18.5-20.5-12.4 4-14.833-5.333-14.5-10.5z" fill="#fff"/>
  <path fill-rule="evenodd" clip-rule="evenodd" d="M70.27 59c9.192 0 17-9.406 17-21.5S79.462 16 70.27 16s-17 9.406-17 21.5 7.808 21.5 17 21.5zm0 1c9.941 0 18-10.074 18-22.5S80.211 15 70.27 15c-9.94 0-18 10.074-18 22.5s8.06 22.5 18 22.5z" fill="#3514FF"/>
  <path fill-rule="evenodd" clip-rule="evenodd" d="M73.803 27.877l-.033 1.137c-.08 2.83.824 6.353 2.991 8.52a6.786 6.786 0 0 0 4.215 1.998c1.763.18 3.936-.21 6.578-1.482l.433.9c-2.758 1.329-5.118 1.78-7.113 1.577a7.786 7.786 0 0 1-4.82-2.286c-2.168-2.168-3.153-5.46-3.276-8.28-.748.462-1.774.97-2.946 1.483-1.712.75-3.8 1.537-5.943 2.243s-4.35 1.333-6.304 1.76c-1.938.422-3.678.658-4.86.55l.09-.995c1.019.093 2.63-.113 4.557-.533 1.911-.416 4.085-1.033 6.204-1.731 2.12-.699 4.176-1.475 5.855-2.21 1.7-.744 2.951-1.42 3.512-1.906l.86-.745z" fill="#3514FF"/>
  <path d="M63.27 37a1 1 0 1 1-2 0 1 1 0 0 1 2 0zM72.27 37a1 1 0 1 1-2 0 1 1 0 0 1 2 0z" fill="#3514FF"/>
  <path fill-rule="evenodd" clip-rule="evenodd" d="M72.655 40.536a2.256 2.256 0 0 1 3.115 2.086c0 1.65-.884 3.173-2.316 3.992l-1.466.837-.504.202a12.054 12.054 0 0 1-9.373-.177 1.06 1.06 0 0 1-.158-.087l-1.176-.784a4.507 4.507 0 0 1-2.007-3.75v-.07c0-1.663 1.728-2.764 3.235-2.06l2.59 1.208a5.5 5.5 0 0 0 4.42.102l3.64-1.499zm2.115 2.086c0-.894-.907-1.502-1.734-1.161l-3.64 1.499a6.5 6.5 0 0 1-5.224-.12l-2.59-1.21a1.274 1.274 0 0 0-1.812 1.155v.07c0 1.173.586 2.268 1.562 2.919l1.176.783a11.054 11.054 0 0 0 8.605.167l.44-.175 1.405-.803a3.598 3.598 0 0 0 1.812-3.124z" fill="#3514FF"/>
  <path d="M24.787 56.191L43.978 37a7.122 7.122 0 0 1 6.292 6.292L31.08 62.483l-5.348 1.528c-1.509.431-2.904-.964-2.473-2.472l1.528-5.348z" fill="#FFFEFE"/>
  <path d="M24.787 56.191L43.978 37m-19.19 19.191l5.662.63m-5.663-.63l-1.528 5.347c-.43 1.51.964 2.904 2.473 2.473l5.347-1.528M43.98 37a7.122 7.122 0 0 1 6.291 6.292M43.978 37l-.09.303a6.558 6.558 0 0 0 .72 5.36m5.662.63l-19.19 19.19m19.19-19.19a12.97 12.97 0 0 1-5.534-.587l-.129-.043M31.08 62.483l-.629-5.663m14.157-14.157L30.45 56.82" stroke="#3514FF"/>
  <path d="M40.14 85c-.58 0-1.04-.16-1.38-.48-.32-.32-.48-.77-.48-1.35V65.68c0-.58.16-1.03.48-1.35.34-.32.8-.48 1.38-.48h5.94c3.46 0 6.14.93 8.04 2.79 1.92 1.84 2.88 4.43 2.88 7.77 0 3.36-.96 5.97-2.88 7.83-1.9 1.84-4.58 2.76-8.04 2.76h-5.94zm5.7-3.15c4.86 0 7.29-2.48 7.29-7.44 0-4.94-2.43-7.41-7.29-7.41h-3.69v14.85h3.69zM92.89 64.87c.14-.4.36-.7.66-.9.32-.2.67-.3 1.05-.3.48 0 .89.15 1.23.45.36.3.54.7.54 1.2 0 .18-.05.44-.15.78l-6.45 17.85c-.16.4-.43.71-.81.93-.36.22-.76.33-1.2.33-.44 0-.85-.11-1.23-.33-.38-.22-.64-.53-.78-.93l-4.98-14.13-5.07 14.13c-.16.4-.43.71-.81.93-.36.22-.76.33-1.2.33-.44 0-.85-.11-1.23-.33-.36-.22-.61-.53-.75-.93L65.26 66.1c-.1-.3-.15-.56-.15-.78 0-.5.18-.9.54-1.2.38-.3.82-.45 1.32-.45.4 0 .76.1 1.08.3.32.2.55.5.69.9l5.1 14.67 5.25-14.58c.14-.4.37-.71.69-.93a1.712 1.712 0 0 1 2.1 0c.34.22.58.54.72.96l5.1 14.73 5.19-14.85zM114.41 85.27c-2.9 0-5.1-.75-6.6-2.25s-2.25-3.69-2.25-6.57V65.62c0-.58.17-1.04.51-1.38.34-.36.8-.54 1.38-.54.58 0 1.04.18 1.38.54.34.34.51.8.51 1.38v11.04c0 1.82.43 3.2 1.29 4.14.86.92 2.12 1.38 3.78 1.38 1.64 0 2.89-.47 3.75-1.41.86-.94 1.29-2.31 1.29-4.11V65.62c0-.58.17-1.04.51-1.38.34-.36.8-.54 1.38-.54.58 0 1.04.18 1.38.54.34.34.51.8.51 1.38v10.83c0 2.86-.75 5.05-2.25 6.57-1.5 1.5-3.69 2.25-6.57 2.25zM135.602 85.18c-.58 0-1.05-.18-1.41-.54-.34-.36-.51-.83-.51-1.41V65.68c0-.58.16-1.03.48-1.35.34-.32.8-.48 1.38-.48h10.53c1.22 0 1.83.52 1.83 1.56 0 1.02-.61 1.53-1.83 1.53h-8.58v5.76h7.98c1.22 0 1.83.52 1.83 1.56 0 1.02-.61 1.53-1.83 1.53h-7.98v7.44c0 .58-.17 1.05-.51 1.41-.34.36-.8.54-1.38.54z" fill="#3514FF"/>
  <path fill-rule="evenodd" clip-rule="evenodd" d="M38.064 85.238l-.011-.01c-.556-.557-.773-1.291-.773-2.058V65.68c0-.767.216-1.5.773-2.057l.01-.01.012-.011c.567-.535 1.295-.752 2.065-.752h5.94c3.638 0 6.598.981 8.736 3.072C56.978 67.996 58 70.874 58 74.41c0 3.557-1.023 6.454-3.184 8.548C52.677 85.03 49.716 86 46.08 86h-5.94c-.77 0-1.498-.217-2.065-.752l-.011-.01zM54.12 66.64c-1.9-1.86-4.58-2.79-8.04-2.79h-5.94c-.58 0-1.04.16-1.38.48-.32.32-.48.77-.48 1.35v17.49c0 .58.16 1.03.48 1.35.34.32.8.48 1.38.48h5.94c3.46 0 6.14-.92 8.04-2.76 1.92-1.86 2.88-4.47 2.88-7.83 0-3.34-.96-5.93-2.88-7.77zm-3.527 12.65c.966-.986 1.537-2.55 1.537-4.88 0-2.32-.57-3.875-1.535-4.856C49.633 68.576 48.112 68 45.84 68h-2.69v12.85h2.69c2.27 0 3.791-.578 4.753-1.56zm-4.753 2.56c4.86 0 7.29-2.48 7.29-7.44 0-4.94-2.43-7.41-7.29-7.41h-3.69v14.85h3.69zm46.106-17.31c.199-.568.538-1.061 1.05-1.402l.011-.008.013-.008c.48-.3 1.014-.452 1.58-.452.703 0 1.349.226 1.881.69.598.504.889 1.19.889 1.96 0 .328-.085.701-.19 1.062l-.01.03-6.465 17.894-.007.015a2.837 2.837 0 0 1-1.227 1.418c-.521.316-1.1.471-1.711.471a3.413 3.413 0 0 1-1.731-.465c-.578-.334-1-.83-1.223-1.464l-4.045-11.477-4.126 11.5-.007.017a2.836 2.836 0 0 1-1.227 1.418c-.521.316-1.1.471-1.711.471a3.413 3.413 0 0 1-1.731-.465l-.01-.005-.01-.007a2.726 2.726 0 0 1-1.171-1.447l-.002-.006-6.45-17.852-.005-.012a3.508 3.508 0 0 1-.201-1.096c0-.774.295-1.464.9-1.968l.01-.009.01-.008a3.069 3.069 0 0 1 1.94-.665c.576 0 1.121.147 1.61.452.536.335.898.831 1.104 1.418v.002l4.172 12 4.29-11.912.002-.005a2.82 2.82 0 0 1 1.048-1.407 2.709 2.709 0 0 1 3.256-.008c.531.353.893.857 1.095 1.458l4.157 12.008 4.242-12.136zM87.7 79.72l-5.1-14.73c-.14-.42-.38-.74-.72-.96a1.712 1.712 0 0 0-2.1 0c-.32.22-.55.53-.69.93l-5.25 14.58-5.1-14.67c-.14-.4-.37-.7-.69-.9-.32-.2-.68-.3-1.08-.3-.5 0-.94.15-1.32.45-.36.3-.54.7-.54 1.2 0 .22.05.48.15.78l6.45 17.85c.14.4.39.71.75.93.38.22.79.33 1.23.33.44 0 .84-.11 1.2-.33.38-.22.65-.53.81-.93l5.07-14.13 4.98 14.13c.14.4.4.71.78.93.38.22.79.33 1.23.33.44 0 .84-.11 1.2-.33.38-.22.65-.53.81-.93l6.45-17.85c.1-.34.15-.6.15-.78 0-.5-.18-.9-.54-1.2-.34-.3-.75-.45-1.23-.45-.38 0-.73.1-1.05.3-.3.2-.52.5-.66.9L87.7 79.72zm33.992 4.002l-.004.005c-1.747 1.747-4.23 2.543-7.278 2.543-3.065 0-5.559-.795-7.307-2.543-1.746-1.747-2.543-4.23-2.543-7.277V65.62c0-.782.235-1.513.793-2.077.561-.587 1.298-.843 2.097-.843.8 0 1.537.256 2.098.843.558.564.792 1.295.792 2.077v11.04c0 1.673.396 2.77 1.025 3.461.616.657 1.573 1.059 3.045 1.059 1.445 0 2.393-.408 3.013-1.085.632-.692 1.027-1.782 1.027-3.435V65.62c0-.782.235-1.513.793-2.077.56-.587 1.298-.843 2.097-.843.8 0 1.537.256 2.098.843.558.564.792 1.295.792 2.077v10.83c0 3.031-.797 5.509-2.538 7.272zm1.028-19.482c-.34-.36-.8-.54-1.38-.54-.58 0-1.04.18-1.38.54-.34.34-.51.8-.51 1.38v11.04c0 1.8-.43 3.17-1.29 4.11-.86.94-2.11 1.41-3.75 1.41-1.66 0-2.92-.46-3.78-1.38-.86-.94-1.29-2.32-1.29-4.14V65.62c0-.58-.17-1.04-.51-1.38-.34-.36-.8-.54-1.38-.54-.58 0-1.04.18-1.38.54-.34.34-.51.8-.51 1.38v10.83c0 2.88.75 5.07 2.25 6.57s3.7 2.25 6.6 2.25c2.88 0 5.07-.75 6.57-2.25 1.5-1.52 2.25-3.71 2.25-6.57V65.62c0-.58-.17-1.04-.51-1.38zm10.755 21.097l-.01-.01c-.545-.577-.783-1.308-.783-2.097V65.68c0-.767.217-1.5.773-2.057l.011-.01.011-.011c.568-.535 1.295-.752 2.065-.752h10.53c.729 0 1.462.152 2.022.629.59.503.808 1.211.808 1.931 0 .716-.222 1.419-.816 1.915-.559.467-1.289.615-2.014.615h-7.58v3.76h6.98c.729 0 1.462.152 2.022.629.59.503.808 1.211.808 1.931 0 .716-.222 1.418-.816 1.915-.559.467-1.289.615-2.014.615h-6.98v6.44c0 .789-.238 1.52-.783 2.097-.561.594-1.303.853-2.107.853-.805 0-1.543-.259-2.117-.833l-.01-.01zm4.017-2.107c0 .58-.17 1.05-.51 1.41-.34.36-.8.54-1.38.54-.58 0-1.05-.18-1.41-.54-.34-.36-.51-.83-.51-1.41V65.68c0-.58.16-1.03.48-1.35.34-.32.8-.48 1.38-.48h10.53c1.22 0 1.83.52 1.83 1.56 0 1.02-.61 1.53-1.83 1.53h-8.58v5.76h7.98c1.22 0 1.83.52 1.83 1.56 0 1.02-.61 1.53-1.83 1.53h-7.98v7.44z" fill="#3514FF"/>
  <defs>
    <filter id="filter0_d" x="0" y="12.805" width="106.183" height="69.129" filterUnits="userSpaceOnUse" color-interpolation-filters="sRGB">
        <feFlood flood-opacity="0" result="BackgroundImageFix"/>
        <feColorMatrix in="SourceAlpha" values="0 0 0 0 0 0 0 0 0 0 0 0 0 0 0 0 0 0 127 0"/>
        <feOffset dy="4"/>
        <feGaussianBlur stdDeviation="4"/>
        <feColorMatrix values="0 0 0 0 0 0 0 0 0 0 0 0 0 0 0 0 0 0 0.06 0"/>
        <feBlend in2="BackgroundImageFix" result="effect1_dropShadow"/>
        <feBlend in="SourceGraphic" in2="effect1_dropShadow" result="shape"/>
    </filter>
  </defs>
</svg>
